<svg xmlns="http://www.w3.org/2000/svg" width="134" height="30" viewBox="0 0 134 30">
  <g id="logo" transform="translate(-436 -20)">
    <text id="Easy_Invoice" data-name="Easy Invoice" transform="translate(468 44)" fill="#2155cd" font-size="20" font-family="Oswald-Regular, Oswald"><tspan x="0" y="0">EASY INVOICE</tspan></text>
    <g id="icon" transform="translate(0 -1)">
      <circle id="Ellipse_1" data-name="Ellipse 1" cx="14" cy="14" r="14" transform="translate(436 22)" fill="#2155cd"/>
      <g id="icon-2" data-name="icon" transform="translate(442 22)">
        <rect id="Rectangle_5" data-name="Rectangle 5" width="6" height="1" transform="translate(5.083 14.062)" fill="#fff"/>
        <rect id="Rectangle_7" data-name="Rectangle 7" width="6" height="1" transform="translate(5.083 11.062)" fill="#fff"/>
        <path id="Path_14" data-name="Path 14" d="M15.914,8H.253A.253.253,0,0,0,0,8.253v1.768a.253.253,0,0,0,.253.253H2.021v9.852l2.273-1.01,2.021,1.01,1.768-1.01,1.768,1.01,2.021-1.01,2.273,1.01V10.273h1.768a.253.253,0,0,0,.253-.253V8.253A.253.253,0,0,0,15.914,8ZM2.021,9.768H.505V8.505H2.021Zm11.62,9.579-1.563-.695-.218-.1-.213.107-1.779.89-1.533-.876-.251-.143-.251.143L6.3,19.552l-1.779-.89-.213-.107-.218.1-1.563.695V8.505H13.641Zm2.021-9.579H14.146V8.505h1.516Z" fill="#fff"/>
      </g>
    </g>
  </g>
</svg>
